<svg xmlns="http://www.w3.org/2000/svg" viewBox="0 0 340 340"><g data-name="Layer 7"><path d="M110.133 176.055c-9.329-2.413-20.209-.973-30.859 6.22a16.434 16.434 0 0 0-4.486 4.507c-11.691 17.583-7.891 35.811 3.206 46.548a16.178 16.178 0 0 1 4.968 11.618v55.862a10.608 10.608 0 0 0 10.608 10.608h26.679v-69.252a9.583 9.583 0 0 1 3.306-7.33 33.959 33.959 0 0 0-13.418-58.781zM258.925 176.055c-9.328-2.412-20.207-.974-30.857 6.218a16.441 16.441 0 0 0-4.488 4.507c-11.692 17.584-7.892 35.813 3.206 46.55a16.177 16.177 0 0 1 4.967 11.618v55.862a10.607 10.607 0 0 0 10.607 10.608h26.68v-69.252a9.583 9.583 0 0 1 3.306-7.33 33.959 33.959 0 0 0-13.419-58.781zM104.076 122.377H80.612a10.89 10.89 0 0 0-8.849 4.48 122.073 122.073 0 0 0-12.048 20.6 7.282 7.282 0 0 0 6.61 10.32h23.463zM254.8 122.377h-23.468a10.89 10.89 0 0 0-8.85 4.48 122.068 122.068 0 0 0-12.047 20.6 7.281 7.281 0 0 0 6.609 10.32h25.05zM191.88 32.018h-26.319A62.7 62.7 0 0 0 131.1 42.339L95.447 65.792a59.46 59.46 0 0 1-27.9 9.595l-10.8.871a34.836 34.836 0 0 0-18.977 7.533c-10.327 8.265-24.94 24.137-25.608 48.114a12.248 12.248 0 0 0 12.293 12.5h23.44z" style="fill:#464965"/><path d="M327.844 108.044 321.857 81.1a19.4 19.4 0 0 0-4.529-3.639 97.187 97.187 0 0 1-19.191-15.094l-12.379-12.241a62.71 62.71 0 0 0-44.081-18.108H189a62.705 62.705 0 0 0-34.465 10.321l-35.648 23.453a59.46 59.46 0 0 1-27.9 9.595l-10.8.871a34.839 34.839 0 0 0-18.978 7.533 77.678 77.678 0 0 0-10.88 10.58L37.41 118.942l183.218 15.584z" style="fill:#fff"/><path d="M326.977 104.141h-75.928a17.134 17.134 0 0 0-13.859 7.059l-4.827 6.642A17.134 17.134 0 0 1 218.5 124.9H196a17.133 17.133 0 0 1-15.2-9.223 17.134 17.134 0 0 0-15.2-9.223h-63.836a19.893 19.893 0 0 0-15.3 7.175 14.736 14.736 0 0 1-11.329 5.313H37.41a58.353 58.353 0 0 0-1.8 12.808 12.292 12.292 0 0 0 12.284 12.65h254.663s25.287-1.686 25.287-19.949v-16.407z" style="fill:#b8b8d3"/><path d="M37.415 118.943H54.6a18.689 18.689 0 0 0 11.934-4.243 48.868 48.868 0 0 0 9.382-10.2 6.491 6.491 0 0 0-5.377-10.125H50.331a62.346 62.346 0 0 0-12.916 24.568z" style="fill:#fff"/><path d="M169 76.087h-33.7a1.314 1.314 0 0 1-.755-2.389l17.11-12.02zM240.552 76.087h32.088a7.707 7.707 0 0 0 5.645-12.959 71.024 71.024 0 0 0-7.111-6.622z" style="fill:#464965"/><path d="M151.657 61.678s1.676 4.671 7.248 10.252A14.268 14.268 0 0 0 169 76.087h71.55a32.141 32.141 0 0 0 17.062-4.793 36.777 36.777 0 0 0 13.56-14.788S258.428 44.5 244.573 44.5h-53.244a47.659 47.659 0 0 0-27.176 8.507zM122.443 118.943H104.87a10.887 10.887 0 0 0-8.849 4.48 122.006 122.006 0 0 0-12.048 20.6 7.281 7.281 0 0 0 6.609 10.32h17.574z" style="fill:#464965"/><path d="M168.721 154.339h-60.565a7.282 7.282 0 0 1-6.61-10.32 122.141 122.141 0 0 1 12.048-20.6 10.89 10.89 0 0 1 8.849-4.48h34.017a13.668 13.668 0 0 1 12.311 7.766 100.507 100.507 0 0 1 7 18.526 7.285 7.285 0 0 1-7.05 9.108z" style="fill:#66667f"/><path d="M312 91.419V97.7a10.345 10.345 0 0 0 10.345 10.345h5.5V95.8s-.2-8.405-5.991-14.7A10.336 10.336 0 0 0 312 91.419z" style="fill:#f76b99"/><path d="M273.163 118.943h-17.574a10.89 10.89 0 0 0-8.849 4.48 122.068 122.068 0 0 0-12.047 20.6 7.281 7.281 0 0 0 6.609 10.32h19.159z" style="fill:#464965"/><path d="M319.441 154.339h-60.566a7.281 7.281 0 0 1-6.609-10.32 122.006 122.006 0 0 1 12.048-20.6 10.887 10.887 0 0 1 8.849-4.48h34.017a13.669 13.669 0 0 1 12.311 7.766 100.5 100.5 0 0 1 6.994 18.526 7.284 7.284 0 0 1-7.044 9.108z" style="fill:#66667f"/><path style="fill:#b8b8d3" d="M209.515 76.087h6.872v50.232h-6.872z"/><rect x="184.395" y="86.678" width="14.971" height="6.872" rx="3.436" style="fill:#b8b8d3"/><path d="M142.078 176.055c-9.133-2.413-19.785-.973-30.211 6.22a16.264 16.264 0 0 0-4.392 4.507c-10.775 16.552-8.11 33.676 1.3 44.584a27.535 27.535 0 0 1 6.7 17.976v62.076h36.505v-64.542a20.981 20.981 0 0 1 5.692-14.394 34.208 34.208 0 0 0 9.3-23.549 33.851 33.851 0 0 0-24.894-32.878zM291.762 176.055c-9.328-2.412-20.207-.974-30.857 6.218a16.451 16.451 0 0 0-4.487 4.507c-11.081 16.665-8.247 33.91 1.527 44.807a26.136 26.136 0 0 1 6.646 17.46v62.371h37.287v-64.855a19.764 19.764 0 0 1 5.6-13.857 33.957 33.957 0 0 0-15.708-56.651z" style="fill:#f9c47a"/><path d="M319.058 74.487a93.172 93.172 0 0 1-18.5-14.569l-12.38-12.236a65.751 65.751 0 0 0-46.5-19.1h-76.116a65.973 65.973 0 0 0-36.354 10.886l-35.65 23.454a56.179 56.179 0 0 1-26.29 9.04l-10.8.871a38.145 38.145 0 0 0-20.848 8.275c-9.735 7.791-26.173 24.738-26.9 50.7a15.4 15.4 0 0 0 4.4 11.247 15.672 15.672 0 0 0 11.325 4.784H79.9a10.722 10.722 0 0 0 10.683 9.935h78.139a10.709 10.709 0 0 0 10.678-9.934h51.22a10.722 10.722 0 0 0 10.683 9.935h78.139a10.719 10.719 0 0 0 10.373-13.392 85.872 85.872 0 0 0-2.468-7.932 19.387 19.387 0 0 0 3.934-12V95.718c-.015-.584-.466-14.384-12.223-21.231zm-3.623 16.932a6.859 6.859 0 0 1 5-6.631 22.088 22.088 0 0 1 3.97 11.009v8.811h-2.065a6.916 6.916 0 0 1-6.908-6.908zM97.336 68.663l35.65-23.454a59.1 59.1 0 0 1 25.9-9.378 66.738 66.738 0 0 0-6.241 3.637L117 62.922a56.2 56.2 0 0 1-25.036 8.9q2.758-1.445 5.372-3.159zm-79.28 69.6A8.575 8.575 0 0 1 15.6 132c.613-22.032 13.564-36.919 24.32-45.528a31.307 31.307 0 0 1 17.106-6.79l4.465-.36a38.926 38.926 0 0 0-2.425 1.785c-9.735 7.791-26.173 24.738-26.9 50.7a15.331 15.331 0 0 0 2.709 9.159H24.454a8.854 8.854 0 0 1-6.398-2.701zM51.919 97.81h18.62a3.056 3.056 0 0 1 2.532 4.764 45.668 45.668 0 0 1-8.732 9.477 15.261 15.261 0 0 1-9.741 3.456H42.017a59.03 59.03 0 0 1 9.902-17.697zm35.44 51.333a3.8 3.8 0 0 1-.261-3.7 119.361 119.361 0 0 1 11.711-20.013 7.464 7.464 0 0 1 6.061-3.051h5.259a125.757 125.757 0 0 0-11.708 20.211 10.672 10.672 0 0 0-.241 8.313h-7.6a3.766 3.766 0 0 1-3.221-1.76zm84.388.278a3.805 3.805 0 0 1-3.026 1.482h-60.566a3.846 3.846 0 0 1-3.484-5.456 119.344 119.344 0 0 1 11.711-20.017 7.464 7.464 0 0 1 6.061-3.051h34.017a10.294 10.294 0 0 1 9.215 5.819 96.787 96.787 0 0 1 6.762 17.889 3.845 3.845 0 0 1-.69 3.334zm66.332-.278a3.8 3.8 0 0 1-.261-3.7 119.344 119.344 0 0 1 11.711-20.017 7.464 7.464 0 0 1 6.06-3.051h5.259a125.727 125.727 0 0 0-11.707 20.211 10.677 10.677 0 0 0-.242 8.313h-7.6a3.766 3.766 0 0 1-3.22-1.756zm84.387.278a3.8 3.8 0 0 1-3.025 1.482h-60.566a3.845 3.845 0 0 1-3.484-5.456 119.313 119.313 0 0 1 11.709-20.016 7.462 7.462 0 0 1 6.061-3.052h34.019a10.294 10.294 0 0 1 9.22 5.821 96.742 96.742 0 0 1 6.762 17.889 3.845 3.845 0 0 1-.696 3.332zm.121-24.2a17.2 17.2 0 0 0-15.407-9.712h-51.591a14.348 14.348 0 0 0-11.637 5.908 126.985 126.985 0 0 0-11.617 19.553H178.13a110 110 0 0 0-6.263-15.749 17.2 17.2 0 0 0-15.407-9.712h-51.59a14.35 14.35 0 0 0-11.638 5.908 126.836 126.836 0 0 0-11.616 19.553H47.894a8.85 8.85 0 0 1-6.4-2.7 8.579 8.579 0 0 1-2.459-6.27 55.768 55.768 0 0 1 1.1-9.622H54.6a22.147 22.147 0 0 0 14.129-5.039 52.518 52.518 0 0 0 10.036-10.916 9.928 9.928 0 0 0-8.224-15.486H58.245a78.257 78.257 0 0 1 5.111-4.465 31.307 31.307 0 0 1 17.106-6.79l10.8-.871a63.093 63.093 0 0 0 29.516-10.149l35.649-23.454A59.118 59.118 0 0 1 189 35.454h52.676a58.918 58.918 0 0 1 41.666 17.116l12.38 12.236a100.946 100.946 0 0 0 19.034 15.107 13.7 13.7 0 0 0-6.194 11.506V97.7a13.8 13.8 0 0 0 13.781 13.78h2.065v12.975a13.992 13.992 0 0 1-.467 3.666c-.434-.955-.882-1.921-1.354-2.902z" style="fill:#464965"/><path d="M273.462 53.941c-1.13-1.05-14.2-12.879-28.888-12.879h-53.245a50.867 50.867 0 0 0-29.135 9.12l-12.5 8.673-.009.007h-.007l-20.506 14.413a3.436 3.436 0 0 0 1.976 6.247H272.64a11.142 11.142 0 0 0 8.16-18.741 74.712 74.712 0 0 0-7.338-6.84zm-107.35 1.887a44.024 44.024 0 0 1 25.217-7.893h53.245c9.3 0 18.335 6.273 22.236 9.376a33.366 33.366 0 0 1-11.019 11.07 28.66 28.66 0 0 1-15.239 4.269H169a10.891 10.891 0 0 1-7.665-3.147 34.183 34.183 0 0 1-5.277-6.7zm-15.694 10.919a40.123 40.123 0 0 0 4.444 5.9h-12.846zm126.148 3.326a4.208 4.208 0 0 1-3.926 2.577h-10.885a39.785 39.785 0 0 0 10.314-10.828 65.146 65.146 0 0 1 3.7 3.652 4.182 4.182 0 0 1 .797 4.599zM148.22 249.157v62.261h6.873v-62.261a23.066 23.066 0 0 1 5.847-15.365 37.4 37.4 0 1 0-56.718-1 29.46 29.46 0 0 1 6.711 18.8v59.829h6.873v-59.832a36.348 36.348 0 0 0-8.3-23.189 30.522 30.522 0 1 1 46.3.82 29.93 29.93 0 0 0-7.586 19.937zM306.721 241.2a22.968 22.968 0 0 1 4.437-7.412 37.4 37.4 0 1 0-56.718-1 29.46 29.46 0 0 1 6.711 18.8v59.829h6.872v-59.828a36.343 36.343 0 0 0-8.3-23.189 30.523 30.523 0 1 1 46.3.82 29.8 29.8 0 0 0-5.76 9.619 3.436 3.436 0 0 0 6.453 2.365z" style="fill:#464965"/><path d="M305.31 254.36a3.436 3.436 0 1 0-6.872 0v2.44a3.436 3.436 0 1 0 6.872 0zM301.874 272.011a3.436 3.436 0 0 0-3.436 3.436v35.971h6.872v-35.971a3.436 3.436 0 0 0-3.436-3.436z" style="fill:#464965"/></g></svg>